<svg width="24" height="24" viewBox="0 0 24 24" fill="none" xmlns="http://www.w3.org/2000/svg">
<path d="M6 4C5.46957 4 4.96086 4.21071 4.58579 4.58579C4.21071 4.96086 4 5.46957 4 6V18C4 18.5304 4.21071 19.0391 4.58579 19.4142C4.96086 19.7893 5.46957 20 6 20H18C18.5304 20 19.0391 19.7893 19.4142 19.4142C19.7893 19.0391 20 18.5304 20 18V6C20 5.46957 19.7893 4.96086 19.4142 4.58579C19.0391 4.21071 18.5304 4 18 4H6ZM6 2H18C19.0609 2 20.0783 2.42143 20.8284 3.17157C21.5786 3.92172 22 4.93913 22 6V18C22 19.0609 21.5786 20.0783 20.8284 20.8284C20.0783 21.5786 19.0609 22 18 22H6C4.93913 22 3.92172 21.5786 3.17157 20.8284C2.42143 20.0783 2 19.0609 2 18V6C2 4.93913 2.42143 3.92172 3.17157 3.17157C3.92172 2.42143 4.93913 2 6 2Z" fill="#4F4F4F"/>
<path d="M10.414 11H16C16.2652 11 16.5196 11.1053 16.7071 11.2929C16.8946 11.4804 17 11.7348 17 12C17 12.2652 16.8946 12.5195 16.7071 12.7071C16.5196 12.8946 16.2652 13 16 13H10.414L12.95 15.536C13.1322 15.7246 13.2329 15.9772 13.2307 16.2394C13.2284 16.5016 13.1232 16.7524 12.9378 16.9378C12.7524 17.1232 12.5016 17.2284 12.2394 17.2307C11.9772 17.2329 11.7246 17.1321 11.536 16.95L7.293 12.707C7.19981 12.6143 7.12586 12.5042 7.0754 12.3828C7.02494 12.2615 6.99896 12.1314 6.99896 12C6.99896 11.8686 7.02494 11.7385 7.0754 11.6171C7.12586 11.4958 7.19981 11.3856 7.293 11.293L11.536 7.04998C11.6282 6.95447 11.7386 6.87829 11.8606 6.82588C11.9826 6.77347 12.1138 6.74588 12.2466 6.74473C12.3794 6.74357 12.5111 6.76888 12.634 6.81916C12.7568 6.86944 12.8685 6.94369 12.9624 7.03758C13.0563 7.13148 13.1305 7.24313 13.1808 7.36602C13.2311 7.48892 13.2564 7.6206 13.2552 7.75338C13.2541 7.88616 13.2265 8.01738 13.1741 8.13938C13.1217 8.26139 13.0455 8.37173 12.95 8.46398L10.414 11Z" fill="#4F4F4F"/>
</svg>