<svg width="165" height="165" viewBox="0 0 165 165" fill="none" xmlns="http://www.w3.org/2000/svg">
<path d="M12.1039 105.394C11.055 118.723 10.4127 144.41 48.1859 143.774C85.965 143.132 82.5766 145.241 84.2679 97.4973C85.9591 49.7534 86.3598 26.677 71.9105 27.9557C57.4612 29.2345 16.5059 18.4093 15.3037 49.1111C14.1016 79.8129 13.7421 84.5566 12.1039 105.394Z" fill="#DE6F30"/>
<path d="M95.4702 76.6189C89.3711 76.6189 84.2266 73.5488 82.8418 68.5929C82.1405 66.0766 82.5353 63.3423 83.9555 60.8791C85.9355 57.4436 89.6657 54.8095 94.1737 53.6427C102.223 51.5743 109.884 54.8271 111.617 61.05C112.318 63.5662 111.923 66.3005 110.503 68.7637C108.523 72.1993 104.793 74.8334 100.285 76.0002C98.712 76.407 97.0946 76.6149 95.4702 76.6189ZM98.9528 58.9286C97.8803 58.9286 96.7607 59.0641 95.6411 59.3529C92.7005 60.1071 90.2373 61.7807 89.0587 63.8255C88.6168 64.5916 88.1689 65.7584 88.5166 67.0018C89.3534 70.0012 94.0736 71.5039 98.8232 70.29C101.764 69.5357 104.227 67.8621 105.406 65.8173C105.847 65.0512 106.295 63.8845 105.948 62.6411C105.305 60.3487 102.4 58.9286 98.9528 58.9286ZM136.72 70.7261C130.621 70.7261 125.477 67.6559 124.092 62.7C123.391 60.1838 123.785 57.4495 125.206 54.9862C127.186 51.5507 130.916 48.9166 135.424 47.7498C143.456 45.6814 151.134 48.9343 152.867 55.1571C153.568 57.6734 153.173 60.4077 151.753 62.8709C149.773 66.3064 146.043 68.9405 141.535 70.1073C139.962 70.5141 138.345 70.722 136.72 70.7261ZM140.203 53.0357C139.13 53.0357 138.011 53.1712 136.891 53.46C133.951 54.2143 131.487 55.8879 130.309 57.9327C129.867 58.6987 129.419 59.8655 129.767 61.1089C130.609 64.1084 135.312 65.6111 140.073 64.3971C143.014 63.6429 145.477 61.9693 146.656 59.9245C147.097 59.1584 147.545 57.9916 147.198 56.7482C146.555 54.4559 143.65 53.0357 140.203 53.0357Z" fill="black"/>
<path d="M109.018 64.792C108.236 64.792 107.487 64.4815 106.934 63.929C106.382 63.3764 106.071 62.627 106.071 61.8455V20.625C106.071 19.916 106.327 19.2307 106.791 18.6949C107.256 18.1591 107.898 17.8087 108.599 17.708L149.849 11.8152C150.268 11.7589 150.694 11.7928 151.098 11.9144C151.503 12.0361 151.876 12.2428 152.194 12.5207C152.513 12.7986 152.768 13.1412 152.942 13.5257C153.117 13.9101 153.208 14.3275 153.208 14.7498L152.973 55.9704C152.968 56.7487 152.656 57.4936 152.103 58.0424C151.551 58.5911 150.805 58.8991 150.026 58.8991H150.009C149.622 58.8968 149.239 58.8183 148.882 58.6681C148.526 58.5179 148.202 58.2989 147.93 58.0236C147.658 57.7484 147.443 57.4223 147.297 57.0639C147.151 56.7055 147.077 56.3219 147.08 55.935L147.292 18.1323L111.964 23.1825V61.8514C111.963 62.6318 111.652 63.3798 111.099 63.9311C110.547 64.4823 109.798 64.792 109.018 64.792ZM79.5536 153.214H32.4107C28.5049 153.21 24.7605 151.656 21.9987 148.894C19.2369 146.132 17.6833 142.388 17.6786 138.482V44.1964C17.6786 36.0702 24.2904 29.4643 32.4107 29.4643H79.5536C83.107 29.4643 86.5425 30.7607 89.2237 33.1061C89.5147 33.3611 89.7526 33.6709 89.9239 34.0178C90.0951 34.3647 90.1963 34.742 90.2218 35.128C90.2472 35.5141 90.1964 35.9014 90.0722 36.2678C89.9479 36.6342 89.7528 36.9725 89.4978 37.2635C89.2428 37.5544 88.933 37.7923 88.586 37.9636C88.2391 38.1348 87.8619 38.2361 87.4758 38.2615C87.0898 38.287 86.7025 38.2361 86.3361 38.1119C85.9697 37.9877 85.6313 37.7925 85.3404 37.5375C83.7391 36.134 81.6829 35.3592 79.5536 35.3571H32.4107C27.5373 35.3571 23.5714 39.323 23.5714 44.1964V138.482C23.5714 143.356 27.5373 147.321 32.4107 147.321H79.5536C84.427 147.321 88.3929 143.356 88.3929 138.482V91.3393C88.3929 90.5578 88.7033 89.8084 89.2558 89.2558C89.8084 88.7033 90.5578 88.3929 91.3393 88.3929C92.1207 88.3929 92.8702 88.7033 93.4227 89.2558C93.9753 89.8084 94.2857 90.5578 94.2857 91.3393V138.482C94.2857 146.608 87.6739 153.214 79.5536 153.214Z" fill="black"/>
<path d="M64.8214 47.1429H47.1429C42.2695 47.1429 38.3036 43.177 38.3036 38.3036C38.3036 36.683 36.9836 35.3571 35.3571 35.3571C34.5757 35.3571 33.8263 35.0467 33.2737 34.4941C32.7211 33.9416 32.4107 33.1921 32.4107 32.4107C32.4107 31.6293 32.7211 30.8798 33.2737 30.3273C33.8263 29.7747 34.5757 29.4643 35.3571 29.4643C40.2305 29.4643 44.1964 33.4302 44.1964 38.3036C44.1964 39.085 44.5068 39.8344 45.0594 40.387C45.612 40.9396 46.3614 41.25 47.1429 41.25H64.8214C65.6029 41.25 66.3523 40.9396 66.9049 40.387C67.4574 39.8344 67.7679 39.085 67.7679 38.3036C67.7679 33.4302 71.7337 29.4643 76.6071 29.4643C77.3886 29.4643 78.138 29.7747 78.6906 30.3273C79.2431 30.8798 79.5536 31.6293 79.5536 32.4107C79.5536 33.1921 79.2431 33.9416 78.6906 34.4941C78.138 35.0467 77.3886 35.3571 76.6071 35.3571C75.8257 35.3571 75.0763 35.6676 74.5237 36.2201C73.9711 36.7727 73.6607 37.5221 73.6607 38.3036C73.6607 43.177 69.6948 47.1429 64.8214 47.1429Z" fill="black"/>
</svg>
