<svg width="140" height="37" viewBox="0 0 140 37" fill="none" xmlns="http://www.w3.org/2000/svg">
<path fill-rule="evenodd" clip-rule="evenodd" d="M8.59126 10.1125C8.69134 10.1843 8.7763 10.2751 8.84128 10.3797C8.90626 10.4844 8.94998 10.6008 8.96994 10.7223C8.98991 10.8439 8.98573 10.9681 8.95764 11.0881C8.92956 11.208 8.87812 11.3212 8.80626 11.4212C8.18126 12.2925 7.81251 13.36 7.81251 14.5162C7.81251 15.6725 8.18001 16.74 8.80626 17.6112C8.94558 17.8134 9.00006 18.0621 8.95801 18.3039C8.91596 18.5458 8.78072 18.7615 8.58135 18.9047C8.38198 19.0479 8.13438 19.1072 7.89176 19.0699C7.64913 19.0326 7.43083 18.9015 7.28376 18.705C6.4065 17.4846 5.93551 16.0192 5.93751 14.5162C5.93751 12.955 6.43751 11.5075 7.28376 10.3287C7.42872 10.127 7.64785 9.99099 7.89301 9.95068C8.13818 9.91036 8.38931 9.96777 8.59126 10.1125ZM21.9538 18.9188C21.752 18.7738 21.616 18.5547 21.5757 18.3095C21.5354 18.0643 21.594 17.8132 21.7388 17.6112C22.3638 16.74 22.7325 15.6725 22.7325 14.5162C22.7325 13.36 22.3638 12.2925 21.7388 11.4212C21.662 11.3216 21.6061 11.2075 21.5743 11.0858C21.5425 10.9641 21.5356 10.8372 21.5539 10.7127C21.5722 10.5883 21.6154 10.4688 21.6808 10.3613C21.7463 10.2539 21.8327 10.1608 21.9349 10.0874C22.0371 10.0141 22.153 9.96206 22.2757 9.93445C22.3984 9.90685 22.5255 9.90423 22.6492 9.92675C22.773 9.94927 22.891 9.99646 22.9961 10.0655C23.1013 10.1346 23.1914 10.2241 23.2613 10.3287C24.1383 11.5487 24.6093 13.0137 24.6075 14.5162C24.6075 16.0775 24.1075 17.525 23.2613 18.7037C23.1163 18.9055 22.8972 19.0415 22.652 19.0818C22.4068 19.1221 22.1557 19.0635 21.9538 18.9188Z" fill="#DE6F30"/>
<path fill-rule="evenodd" clip-rule="evenodd" d="M5.86127 6.34C6.06946 6.47593 6.21513 6.68899 6.26623 6.93232C6.31734 7.17565 6.26969 7.42931 6.13377 7.63751C4.77812 9.7155 4.05829 12.1439 4.06252 14.625C4.06252 17.205 4.82502 19.6038 6.13377 21.6125C6.20185 21.7156 6.24889 21.8311 6.27218 21.9524C6.29548 22.0737 6.29456 22.1985 6.26949 22.3194C6.24443 22.4404 6.1957 22.5552 6.12611 22.6573C6.05652 22.7594 5.96745 22.8467 5.86401 22.9142C5.76057 22.9817 5.6448 23.0282 5.52336 23.0508C5.40191 23.0735 5.27719 23.0719 5.15637 23.0462C5.03554 23.0204 4.92098 22.9711 4.81928 22.901C4.71758 22.8308 4.63075 22.7413 4.56377 22.6375C3.00904 20.2547 2.18323 17.4701 2.18752 14.625C2.18752 11.6713 3.06127 8.9175 4.56252 6.6125C4.62982 6.50925 4.71683 6.42028 4.81856 6.35068C4.9203 6.28109 5.03475 6.23224 5.15538 6.20693C5.27601 6.18162 5.40045 6.18034 5.52158 6.20318C5.6427 6.22601 5.75813 6.27251 5.86127 6.34ZM24.4875 22.91C24.2793 22.7741 24.1337 22.561 24.0826 22.3177C24.0314 22.0744 24.0791 21.8207 24.215 21.6125C25.5707 19.5345 26.2906 17.1061 26.2863 14.625C26.2863 12.045 25.5238 9.64626 24.215 7.63751C24.0807 7.42931 24.0342 7.1764 24.0858 6.93406C24.1374 6.69171 24.2828 6.47963 24.4902 6.34418C24.6977 6.20873 24.9504 6.16092 25.193 6.2112C25.4356 6.26148 25.6485 6.40576 25.785 6.6125C27.3392 8.99545 28.1646 11.78 28.16 14.625C28.16 17.5788 27.2875 20.3325 25.785 22.6375C25.6491 22.8457 25.436 22.9914 25.1927 23.0425C24.9494 23.0936 24.6957 23.0459 24.4875 22.91Z" fill="#DE6F30"/>
<path d="M15 6.8125C13.9226 6.8125 12.8892 7.24051 12.1274 8.00238C11.3655 8.76425 10.9375 9.79756 10.9375 10.875V17.125C10.9375 18.2024 11.3655 19.2358 12.1274 19.9976C12.8892 20.7595 13.9226 21.1875 15 21.1875C16.0774 21.1875 17.1108 20.7595 17.8726 19.9976C18.6345 19.2358 19.0625 18.2024 19.0625 17.125V10.875C19.0625 9.79756 18.6345 8.76425 17.8726 8.00238C17.1108 7.24051 16.0774 6.8125 15 6.8125Z" fill="#607D8B"/>
<path fill-rule="evenodd" clip-rule="evenodd" d="M10.625 20.5625C10.8736 20.5625 11.1121 20.6613 11.2879 20.8371C11.4637 21.0129 11.5625 21.2514 11.5625 21.5V22.125C11.5625 22.9875 12.2625 23.6875 13.125 23.6875H16.875C17.7375 23.6875 18.4375 22.9875 18.4375 22.125V21.5C18.4375 21.2514 18.5363 21.0129 18.7121 20.8371C18.8879 20.6613 19.1264 20.5625 19.375 20.5625C19.6236 20.5625 19.8621 20.6613 20.0379 20.8371C20.2137 21.0129 20.3125 21.2514 20.3125 21.5V22.125C20.3125 23.0367 19.9503 23.911 19.3057 24.5557C18.661 25.2003 17.7867 25.5625 16.875 25.5625H13.125C12.2133 25.5625 11.339 25.2003 10.6943 24.5557C10.0497 23.911 9.6875 23.0367 9.6875 22.125V21.5C9.6875 21.2514 9.78627 21.0129 9.96209 20.8371C10.1379 20.6613 10.3764 20.5625 10.625 20.5625Z" fill="#486472"/>
<path fill-rule="evenodd" clip-rule="evenodd" d="M15 23.6875C15.2486 23.6875 15.4871 23.7863 15.6629 23.9621C15.8387 24.1379 15.9375 24.3764 15.9375 24.625V31.5C15.9375 31.7486 15.8387 31.9871 15.6629 32.1629C15.4871 32.3387 15.2486 32.4375 15 32.4375C14.7514 32.4375 14.5129 32.3387 14.3371 32.1629C14.1613 31.9871 14.0625 31.7486 14.0625 31.5V24.625C14.0625 24.3764 14.1613 24.1379 14.3371 23.9621C14.5129 23.7863 14.7514 23.6875 15 23.6875Z" fill="#486472"/>
<path fill-rule="evenodd" clip-rule="evenodd" d="M10.9375 31.5C10.9375 31.2514 11.0363 31.0129 11.2121 30.8371C11.3879 30.6613 11.6264 30.5625 11.875 30.5625H18.125C18.3736 30.5625 18.6121 30.6613 18.7879 30.8371C18.9637 31.0129 19.0625 31.2514 19.0625 31.5C19.0625 31.7486 18.9637 31.9871 18.7879 32.1629C18.6121 32.3387 18.3736 32.4375 18.125 32.4375H11.875C11.6264 32.4375 11.3879 32.3387 11.2121 32.1629C11.0363 31.9871 10.9375 31.7486 10.9375 31.5Z" fill="#486472"/>
<path d="M36.936 14.352C36.936 11.304 39.336 9.144 42.96 9.144C46.416 9.144 48.624 11.232 48.768 14.28H45.744C45.672 12.648 44.52 11.856 42.888 11.856C41.064 11.856 39.984 12.816 39.984 14.232C39.984 15.432 40.776 16.056 42.048 16.392L44.904 17.136C47.904 17.928 49.344 19.752 49.344 22.104C49.344 25.224 46.776 27.312 42.96 27.312C39.336 27.312 36.84 25.32 36.72 22.176H39.744C39.744 23.664 41.016 24.552 43.008 24.552C45.072 24.552 46.296 23.616 46.296 22.2C46.296 21.072 45.552 20.4 44.256 20.04L41.4 19.272C38.232 18.408 36.936 16.584 36.936 14.352ZM51.9071 32.496V15.144H54.5471L54.7151 16.944C55.4351 15.576 57.0671 14.784 58.8671 14.784C62.2271 14.784 64.3631 17.208 64.4351 20.928C64.4831 24.624 62.3951 27.312 58.8911 27.312C57.1151 27.312 55.5071 26.592 54.7631 25.368V32.496H51.9071ZM54.8831 21.072C54.8831 23.208 56.1791 24.672 58.2191 24.672C60.2591 24.672 61.4831 23.184 61.4831 21.072C61.4831 18.96 60.2591 17.448 58.2191 17.448C56.1791 17.448 54.8831 18.936 54.8831 21.072ZM66.0426 21.048C66.0426 17.4 68.4906 14.808 72.2106 14.808C75.9306 14.808 78.3786 17.4 78.3786 21.048C78.3786 24.696 75.9306 27.288 72.2106 27.288C68.4906 27.288 66.0426 24.696 66.0426 21.048ZM68.9946 21.048C68.9946 23.16 70.2666 24.672 72.2106 24.672C74.1546 24.672 75.4266 23.16 75.4266 21.048C75.4266 18.912 74.1546 17.424 72.2106 17.424C70.2666 17.424 68.9946 18.912 68.9946 21.048ZM84.4809 27H81.5769V17.568H79.2969V15.144H81.5769V11.448H84.4809V15.144H86.7369V17.568H84.4809V27ZM88.0063 14.352C88.0063 11.304 90.4063 9.144 94.0303 9.144C97.4863 9.144 99.6943 11.232 99.8383 14.28H96.8143C96.7423 12.648 95.5903 11.856 93.9583 11.856C92.1343 11.856 91.0543 12.816 91.0543 14.232C91.0543 15.432 91.8463 16.056 93.1183 16.392L95.9743 17.136C98.9743 17.928 100.414 19.752 100.414 22.104C100.414 25.224 97.8463 27.312 94.0303 27.312C90.4063 27.312 87.9103 25.32 87.7903 22.176H90.8143C90.8143 23.664 92.0863 24.552 94.0783 24.552C96.1423 24.552 97.3663 23.616 97.3663 22.2C97.3663 21.072 96.6223 20.4 95.3263 20.04L92.4703 19.272C89.3023 18.408 88.0063 16.584 88.0063 14.352ZM102.089 21.072C102.089 17.256 104.417 14.784 107.825 14.784C111.281 14.784 113.369 17.256 113.369 21.024V21.912H104.921C104.993 23.808 106.097 24.84 107.873 24.84C109.289 24.84 110.417 24.12 110.705 23.088H113.417C112.913 25.608 110.681 27.312 107.825 27.312C104.393 27.312 102.089 24.84 102.089 21.072ZM104.969 20.04H110.465C110.441 18.192 109.313 17.208 107.729 17.208C106.121 17.208 104.993 18.24 104.969 20.04ZM114.883 23.448H117.547C117.547 24.48 118.291 25.08 119.587 25.08C120.667 25.08 121.555 24.648 121.555 23.712C121.555 23.04 121.075 22.68 120.307 22.464L118.243 21.936C115.963 21.336 115.075 20.064 115.075 18.528C115.075 16.272 116.971 14.784 119.515 14.784C122.083 14.784 123.835 16.272 123.931 18.624H121.267C121.267 17.592 120.547 16.968 119.443 16.968C118.387 16.968 117.739 17.544 117.739 18.36C117.739 19.128 118.339 19.44 119.227 19.68L121.315 20.184C123.259 20.664 124.315 21.816 124.315 23.52C124.315 25.824 122.419 27.312 119.635 27.312C116.803 27.312 114.979 25.8 114.883 23.448ZM129.788 27H126.86V9.144H129.788V16.656C130.556 15.48 131.972 14.784 133.652 14.784C136.7 14.784 138.092 16.752 138.092 19.704V27H135.188V20.4C135.188 17.856 133.7 17.448 132.716 17.448C131.42 17.448 129.788 18.144 129.788 20.472V27Z" fill="url(#paint0_linear_4_35)"/>
<defs>
<linearGradient id="paint0_linear_4_35" x1="29.6403" y1="22.6429" x2="150.475" y2="22.6429" gradientUnits="userSpaceOnUse">
<stop stop-color="#486472"/>
<stop offset="1" stop-color="#607D8B"/>
</linearGradient>
</defs>
</svg>
