<svg width="30" height="30" viewBox="0 0 30 30" fill="none" xmlns="http://www.w3.org/2000/svg">
<path fill-rule="evenodd" clip-rule="evenodd" d="M8.59123 6.11251C8.69131 6.1843 8.77627 6.27511 8.84125 6.37975C8.90622 6.48438 8.94995 6.6008 8.96991 6.72234C8.98988 6.84388 8.9857 6.96816 8.95761 7.08809C8.92953 7.20801 8.87808 7.32123 8.80623 7.42126C8.18123 8.29251 7.81248 9.36001 7.81248 10.5163C7.81248 11.6725 8.17998 12.74 8.80623 13.6113C8.94555 13.8134 9.00003 14.0621 8.95798 14.3039C8.91593 14.5458 8.78069 14.7615 8.58132 14.9047C8.38195 15.048 8.13435 15.1073 7.89173 15.0699C7.6491 15.0326 7.4308 14.9016 7.28373 14.705C6.40647 13.4847 5.93548 12.0192 5.93748 10.5163C5.93748 8.95501 6.43748 7.50751 7.28373 6.32876C7.42869 6.12699 7.64782 5.99101 7.89298 5.95069C8.13814 5.91038 8.38928 5.96778 8.59123 6.11251ZM21.9537 14.9188C21.7519 14.7738 21.616 14.5547 21.5757 14.3095C21.5353 14.0643 21.594 13.8132 21.7387 13.6113C22.3637 12.74 22.7325 11.6725 22.7325 10.5163C22.7325 9.36001 22.3637 8.29251 21.7387 7.42126C21.662 7.32161 21.606 7.20752 21.5743 7.0858C21.5425 6.96408 21.5356 6.83721 21.5539 6.71275C21.5722 6.58829 21.6153 6.46879 21.6808 6.36136C21.7462 6.25393 21.8326 6.16077 21.9348 6.08743C22.037 6.01409 22.153 5.96207 22.2757 5.93447C22.3984 5.90687 22.5255 5.90425 22.6492 5.92676C22.773 5.94928 22.8909 5.99648 22.9961 6.06554C23.1012 6.13461 23.1914 6.22412 23.2612 6.32876C24.1383 7.54873 24.6093 9.01374 24.6075 10.5163C24.6075 12.0775 24.1075 13.525 23.2612 14.7038C23.1163 14.9055 22.8971 15.0415 22.652 15.0818C22.4068 15.1221 22.1557 15.0635 21.9537 14.9188Z" fill="#DE6F30"/>
<path fill-rule="evenodd" clip-rule="evenodd" d="M5.86124 2.34C6.06943 2.47593 6.2151 2.68899 6.2662 2.93232C6.31731 3.17565 6.26966 3.42931 6.13374 3.63751C4.77809 5.7155 4.05826 8.14391 4.06249 10.625C4.06249 13.205 4.82499 15.6038 6.13374 17.6125C6.20182 17.7156 6.24886 17.8311 6.27215 17.9524C6.29545 18.0737 6.29453 18.1985 6.26946 18.3194C6.2444 18.4404 6.19567 18.5552 6.12608 18.6573C6.05649 18.7594 5.96742 18.8467 5.86398 18.9142C5.76054 18.9817 5.64477 19.0282 5.52332 19.0508C5.40188 19.0735 5.27716 19.0719 5.15633 19.0462C5.03551 19.0204 4.92095 18.9711 4.81925 18.901C4.71755 18.8308 4.63072 18.7413 4.56374 18.6375C3.00901 16.2547 2.1832 13.4701 2.18749 10.625C2.18749 7.67126 3.06124 4.91751 4.56249 2.6125C4.62979 2.50925 4.7168 2.42028 4.81853 2.35068C4.92027 2.28109 5.03472 2.23224 5.15535 2.20693C5.27598 2.18162 5.40042 2.18034 5.52155 2.20318C5.64267 2.22601 5.7581 2.27251 5.86124 2.34ZM24.4875 18.91C24.2793 18.7741 24.1336 18.561 24.0825 18.3177C24.0314 18.0744 24.0791 17.8207 24.215 17.6125C25.5707 15.5345 26.2905 13.1061 26.2862 10.625C26.2862 8.04501 25.5237 5.64626 24.215 3.63751C24.0806 3.42931 24.0342 3.1764 24.0858 2.93406C24.1373 2.69171 24.2827 2.47963 24.4902 2.34418C24.6977 2.20873 24.9503 2.16092 25.193 2.2112C25.4356 2.26148 25.6484 2.40576 25.785 2.6125C27.3392 4.99545 28.1646 7.78001 28.16 10.625C28.16 13.5788 27.2875 16.3325 25.785 18.6375C25.6491 18.8457 25.436 18.9914 25.1927 19.0425C24.9493 19.0936 24.6957 19.0459 24.4875 18.91Z" fill="#DE6F30"/>
<path d="M15 2.8125C13.9226 2.8125 12.8892 3.24051 12.1274 4.00238C11.3655 4.76425 10.9375 5.79756 10.9375 6.875V13.125C10.9375 14.2024 11.3655 15.2358 12.1274 15.9976C12.8892 16.7595 13.9226 17.1875 15 17.1875C16.0774 17.1875 17.1108 16.7595 17.8726 15.9976C18.6345 15.2358 19.0625 14.2024 19.0625 13.125V6.875C19.0625 5.79756 18.6345 4.76425 17.8726 4.00238C17.1108 3.24051 16.0774 2.8125 15 2.8125Z" fill="#607D8B"/>
<path fill-rule="evenodd" clip-rule="evenodd" d="M10.625 16.5625C10.8736 16.5625 11.1121 16.6613 11.2879 16.8371C11.4637 17.0129 11.5625 17.2514 11.5625 17.5V18.125C11.5625 18.9875 12.2625 19.6875 13.125 19.6875H16.875C17.7375 19.6875 18.4375 18.9875 18.4375 18.125V17.5C18.4375 17.2514 18.5363 17.0129 18.7121 16.8371C18.8879 16.6613 19.1264 16.5625 19.375 16.5625C19.6236 16.5625 19.8621 16.6613 20.0379 16.8371C20.2137 17.0129 20.3125 17.2514 20.3125 17.5V18.125C20.3125 19.0367 19.9503 19.911 19.3057 20.5557C18.661 21.2003 17.7867 21.5625 16.875 21.5625H13.125C12.2133 21.5625 11.339 21.2003 10.6943 20.5557C10.0497 19.911 9.6875 19.0367 9.6875 18.125V17.5C9.6875 17.2514 9.78627 17.0129 9.96209 16.8371C10.1379 16.6613 10.3764 16.5625 10.625 16.5625Z" fill="#486472"/>
<path fill-rule="evenodd" clip-rule="evenodd" d="M15 19.6875C15.2486 19.6875 15.4871 19.7863 15.6629 19.9621C15.8387 20.1379 15.9375 20.3764 15.9375 20.625V27.5C15.9375 27.7486 15.8387 27.9871 15.6629 28.1629C15.4871 28.3387 15.2486 28.4375 15 28.4375C14.7514 28.4375 14.5129 28.3387 14.3371 28.1629C14.1613 27.9871 14.0625 27.7486 14.0625 27.5V20.625C14.0625 20.3764 14.1613 20.1379 14.3371 19.9621C14.5129 19.7863 14.7514 19.6875 15 19.6875Z" fill="#486472"/>
<path fill-rule="evenodd" clip-rule="evenodd" d="M10.9375 27.5C10.9375 27.2514 11.0363 27.0129 11.2121 26.8371C11.3879 26.6613 11.6264 26.5625 11.875 26.5625H18.125C18.3736 26.5625 18.6121 26.6613 18.7879 26.8371C18.9637 27.0129 19.0625 27.2514 19.0625 27.5C19.0625 27.7486 18.9637 27.9871 18.7879 28.1629C18.6121 28.3387 18.3736 28.4375 18.125 28.4375H11.875C11.6264 28.4375 11.3879 28.3387 11.2121 28.1629C11.0363 27.9871 10.9375 27.7486 10.9375 27.5Z" fill="#486472"/>
</svg>